<svg xmlns="http://www.w3.org/2000/svg" viewBox="0 0 16 16" width="50px" height="50px" fill-rule="evenodd" clip-rule="evenodd" baseProfile="basic">
  <path fill="#ffccbc" fill-rule="evenodd" d="M0.997,5.026v4.953 c0,1.668,1.355,3.023,3.023,3.023h7.956c1.668,0,3.023-1.355,3.023-3.023V5.026c0-1.668-1.355-3.023-3.023-3.023H4.019 C2.351,2.003,0.997,3.358,0.997,5.026z" clip-rule="evenodd" />
  <path fill="#212121" fill-rule="evenodd" d="M-0.002,10.002v-4 c0-2.952,2.047-5,5-5h6c2.952,0,5,2.048,5,5v4c0,2.953-2.048,5-5,5h-6C2.045,15.002-0.002,12.955-0.002,10.002z M13.997,10.5V6.002 c0-1.845-1.153-3-3-3h-6c-1.847,0-3,1.153-3,3V10.5c0,0.828,0.673,1.501,1.501,1.501h8.997C13.324,12.002,13.997,11.328,13.997,10.5 z M4.11,10.172L7.62,6.168c0.199-0.227,0.552-0.227,0.751,0l3.513,4.004c0.283,0.323,0.053,0.829-0.375,0.829H4.486 C4.057,11.002,3.827,10.495,4.11,10.172z M3.995,5.003c0-0.553,0.448-1.001,1.001-1.001S5.998,4.45,5.998,5.003 c0,0.553-0.448,1.001-1.001,1.001S3.995,5.556,3.995,5.003z" clip-rule="evenodd" />
</svg>